<svg version="1.1" xmlns="http://www.w3.org/2000/svg" viewBox="0 0 680.4318985808034 338.4138393774907" width="680.4318985808034" height="338.4138393774907">
  <!-- svg-source:excalidraw -->
  
  <defs>
    <style class="style-fonts">
      
    </style>
    
  </defs>
  <rect x="0" y="0" width="680.4318985808034" height="338.4138393774907" fill="#ffffff"></rect><g stroke-linecap="round" transform="translate(10 141) rotate(0 48 61)"><path d="M24 0 C39.9 0, 54.25 1.08, 72 0 M24 0 C39.4 -0.54, 52.93 0.65, 72 0 M72 0 C87.7 -0.28, 97.9 7.16, 96 24 M72 0 C86.55 -0.35, 95.74 9.95, 96 24 M96 24 C96.31 39.99, 95.75 56.4, 96 98 M96 24 C96.9 52.34, 96.19 81.01, 96 98 M96 98 C95.66 115.95, 86.15 120.26, 72 122 M96 98 C93.74 115.6, 89.27 122.13, 72 122 M72 122 C54.32 121.23, 37.59 121.19, 24 122 M72 122 C52.77 120.79, 33.09 120.65, 24 122 M24 122 C7.39 120.76, 0.73 115.06, 0 98 M24 122 C10.25 120.88, 1.54 115.82, 0 98 M0 98 C2.06 80.23, -0.29 64.19, 0 24 M0 98 C1.45 71, -0.37 42.96, 0 24 M0 24 C-1.93 9.38, 7.72 -0.53, 24 0 M0 24 C-2.01 6.24, 8.77 -0.91, 24 0" stroke="#1e1e1e" stroke-width="2" fill="none"></path></g><g stroke-linecap="round" transform="translate(531 152) rotate(0 48 61)"><path d="M24 0 C36.01 -0.28, 50.48 1.06, 72 0 M24 0 C41.61 1.03, 57.05 -0.58, 72 0 M72 0 C87.77 1.46, 94.24 7.11, 96 24 M72 0 C85.92 1.77, 94.05 6.46, 96 24 M96 24 C98.22 50.39, 98.05 80.36, 96 98 M96 24 C95.69 43.85, 95.29 63.71, 96 98 M96 98 C96.96 112.67, 87.47 123.8, 72 122 M96 98 C95.53 112.76, 88.54 122.14, 72 122 M72 122 C61.54 120.47, 52.35 121.06, 24 122 M72 122 C58.86 122.35, 45.35 121.41, 24 122 M24 122 C7.66 122.68, 1.56 113.22, 0 98 M24 122 C7.64 123.57, 2.2 115.26, 0 98 M0 98 C-1.54 81.33, -1.15 67.99, 0 24 M0 98 C0.58 69.36, 0.9 41.61, 0 24 M0 24 C-1.01 8.65, 8.77 -1.01, 24 0 M0 24 C-1.54 8.23, 9.7 2.17, 24 0" stroke="#1e1e1e" stroke-width="2" fill="none"></path></g><g stroke-linecap="round" transform="translate(369 10) rotate(0 48 61)"><path d="M24 0 C37.39 -1.23, 48.21 1.33, 72 0 M24 0 C35.11 -0.83, 44.32 -0.85, 72 0 M72 0 C89.54 -1.7, 94.66 9.65, 96 24 M72 0 C90.08 -2.29, 97.79 5.79, 96 24 M96 24 C94.15 49.77, 96.56 77.8, 96 98 M96 24 C94.76 45.45, 96.32 67.23, 96 98 M96 98 C94.93 114.47, 88.12 120.42, 72 122 M96 98 C96.15 115.36, 88.17 119.91, 72 122 M72 122 C52.31 123.63, 36.94 121.82, 24 122 M72 122 C53.56 122.7, 34.04 121.76, 24 122 M24 122 C9.37 123.92, 1.1 112.03, 0 98 M24 122 C8.34 119.72, -1.64 111.99, 0 98 M0 98 C-1.17 81.61, 0.31 60.94, 0 24 M0 98 C-0.05 72.9, -0.88 46.35, 0 24 M0 24 C0.2 9.48, 9.88 0.75, 24 0 M0 24 C0.95 9.06, 6.61 1.87, 24 0" stroke="#1e1e1e" stroke-width="2" fill="none"></path></g><g stroke-linecap="round" transform="translate(160 10) rotate(0 48 61)"><path d="M24 0 C40 0.18, 60.71 -1.36, 72 0 M24 0 C35.42 -1.04, 49.37 0.54, 72 0 M72 0 C86.01 1.55, 94.07 9.38, 96 24 M72 0 C87.68 -0.61, 93.99 6.24, 96 24 M96 24 C94.16 49.63, 94.38 72.8, 96 98 M96 24 C96.09 52.9, 95.06 81.75, 96 98 M96 98 C97.18 114.15, 86.18 123.57, 72 122 M96 98 C94.59 113.7, 86.26 123.94, 72 122 M72 122 C52.51 122.1, 37.67 124, 24 122 M72 122 C60.44 122.88, 45.98 122.48, 24 122 M24 122 C6.01 120.57, -1.74 112.96, 0 98 M24 122 C7.81 123.94, -1.41 116.24, 0 98 M0 98 C1.15 73.86, 0.79 52.52, 0 24 M0 98 C1.24 80.47, 0.87 61.48, 0 24 M0 24 C0.93 6.79, 9.63 0.2, 24 0 M0 24 C-0.1 10.23, 8.6 -1.04, 24 0" stroke="#1e1e1e" stroke-width="2" fill="none"></path></g><g stroke-linecap="round" transform="translate(28.821739382320175 159.92673984791736) rotate(0 12.016938750559007 42.19280716862943)"><path d="M6.01 0 C10.5 1.83, 12.85 -0.72, 18.03 0 C20.82 -2.21, 24.53 -0.54, 24.03 6.01 C28.83 24.93, 27.15 48.07, 24.03 78.38 C24.15 80.28, 24.21 84.67, 18.03 84.39 C13.64 84.51, 13.03 82.27, 6.01 84.39 C-0.8 87.43, -3.03 80.94, 0 78.38 C2.24 56.53, 0.98 39.95, 0 6.01 C-0.3 3.94, -0.47 -1.25, 6.01 0" stroke="none" stroke-width="0" fill="#ffa94d"></path><path d="M6.01 0 C9.34 -0.24, 13.98 -0.18, 18.03 0 M6.01 0 C9.04 -0.48, 12.66 -0.43, 18.03 0 M18.03 0 C20.06 -1.83, 25.91 1.46, 24.03 6.01 M18.03 0 C24 -1.77, 24.4 0.81, 24.03 6.01 M24.03 6.01 C23.98 31.59, 22.9 56.48, 24.03 78.38 M24.03 6.01 C24.06 24.16, 23.84 41.73, 24.03 78.38 M24.03 78.38 C24.37 82.9, 20.59 85.14, 18.03 84.39 M24.03 78.38 C22.04 83.03, 20.57 84.24, 18.03 84.39 M18.03 84.39 C15.38 84.58, 9.82 85.43, 6.01 84.39 M18.03 84.39 C14.46 84.96, 10.79 84.01, 6.01 84.39 M6.01 84.39 C3.44 82.7, 0.5 80.7, 0 78.38 M6.01 84.39 C3.21 84.54, -1.07 81.91, 0 78.38 M0 78.38 C0.05 55.21, -0.38 31.9, 0 6.01 M0 78.38 C0.03 51.55, 0.8 26.32, 0 6.01 M0 6.01 C-1.19 2.36, 0.36 -0.6, 6.01 0 M0 6.01 C0.7 2.16, 0.34 -2.28, 6.01 0" stroke="#1e1e1e" stroke-width="1" fill="none"></path></g><g stroke-linecap="round" transform="translate(63.00325405057686 160.99491218130038) rotate(0 11.215809500521743 21.630489751006223)"><path d="M5.61 0 C9.38 -0.75, 12.76 -1.42, 16.82 0 C21.06 -2.54, 21.73 5.22, 22.43 5.61 C24.91 16.56, 23.13 22.46, 22.43 37.65 C24.62 41.67, 17.17 39.87, 16.82 43.26 C14.49 41.51, 10.69 45, 5.61 43.26 C-1.16 41.81, -1.15 41.74, 0 37.65 C0.73 31.09, -0.68 25.75, 0 5.61 C-2.47 0.62, 3.4 -2.53, 5.61 0" stroke="none" stroke-width="0" fill="#ffa94d"></path><path d="M5.61 0 C11.1 -0.04, 14.09 1.01, 16.82 0 M5.61 0 C9.26 -0.32, 11.47 -0.42, 16.82 0 M16.82 0 C22.43 -0.55, 24.14 0.33, 22.43 5.61 M16.82 0 C20.93 -1.19, 23.48 -0.19, 22.43 5.61 M22.43 5.61 C22.04 17.89, 21.54 29.74, 22.43 37.65 M22.43 5.61 C22.02 14.03, 22.55 23.85, 22.43 37.65 M22.43 37.65 C20.99 42.14, 18.83 43.82, 16.82 43.26 M22.43 37.65 C20.97 41.25, 21 42.48, 16.82 43.26 M16.82 43.26 C13.46 44.31, 11.06 42.71, 5.61 43.26 M16.82 43.26 C12.6 42.93, 9.03 42.88, 5.61 43.26 M5.61 43.26 C2.37 41.58, 1.05 41.53, 0 37.65 M5.61 43.26 C0.8 42.79, 0.54 41.92, 0 37.65 M0 37.65 C-0.25 29.43, 1.22 20.3, 0 5.61 M0 37.65 C0.74 25.79, -0.58 13.14, 0 5.61 M0 5.61 C-1.65 1.27, 2.48 0.13, 5.61 0 M0 5.61 C-1.66 -0.41, 1.66 -0.29, 5.61 0" stroke="#1e1e1e" stroke-width="1" fill="none"></path></g><g stroke-linecap="round" transform="translate(61.93508171719384 221.88073518413262) rotate(0 11.482852583867498 10.41468025048448)"><path d="M5.21 0 C9.34 -1.32, 15.3 -1.53, 17.76 0 C20.52 3.35, 22.81 5.32, 22.97 5.21 C23.13 6.84, 24.2 10.81, 22.97 15.62 C19.57 15.7, 17.75 17.64, 17.76 20.83 C12.04 22.54, 7.94 19.72, 5.21 20.83 C0.58 21.18, -3.02 21.46, 0 15.62 C-0.22 14.22, -1.34 10.14, 0 5.21 C1.53 -0.79, 3.13 -3.38, 5.21 0" stroke="none" stroke-width="0" fill="#ffa94d"></path><path d="M5.21 0 C8.3 1.13, 12.31 -0.11, 17.76 0 M5.21 0 C7.32 -0.48, 11.25 -0.08, 17.76 0 M17.76 0 C22.94 -1.54, 23.28 0.7, 22.97 5.21 M17.76 0 C22.28 -2.06, 24.56 2.42, 22.97 5.21 M22.97 5.21 C22.43 8.86, 22.74 11.9, 22.97 15.62 M22.97 5.21 C23.02 8.47, 22.55 11.66, 22.97 15.62 M22.97 15.62 C21.23 19.65, 19.96 20.71, 17.76 20.83 M22.97 15.62 C23.4 18.32, 20.19 23.1, 17.76 20.83 M17.76 20.83 C13.68 20.3, 10.53 20.92, 5.21 20.83 M17.76 20.83 C13.41 20.21, 8.31 20.21, 5.21 20.83 M5.21 20.83 C2.79 20.96, -0.93 18.68, 0 15.62 M5.21 20.83 C2.28 21.36, -0.74 19.35, 0 15.62 M0 15.62 C0.67 12.27, 0.9 9.08, 0 5.21 M0 15.62 C-0.39 13.18, -0.5 10.39, 0 5.21 M0 5.21 C0.61 1.87, 0.29 -1.98, 5.21 0 M0 5.21 C-0.21 1.44, 2.86 1.06, 5.21 0" stroke="#1e1e1e" stroke-width="1" fill="none"></path></g><g stroke-linecap="round" transform="translate(41 198) rotate(0 41 40.5)"><path d="M4.31 22.29 C4.31 22.29, 4.31 22.29, 4.31 22.29 M4.31 22.29 C4.31 22.29, 4.31 22.29, 4.31 22.29 M1.81 37.35 C8.85 29.47, 14.65 19.82, 24.12 11.69 M1.81 37.35 C10.93 26.87, 18.32 17.14, 24.12 11.69 M2.6 48.64 C8.96 40.09, 20.07 30.44, 43.28 1.85 M2.6 48.64 C12.42 37.79, 20.16 28.16, 43.28 1.85 M6.67 56.15 C18.48 42.7, 28.28 30.6, 51.28 4.83 M6.67 56.15 C21.02 40.63, 35.48 24.62, 51.28 4.83 M10.74 63.66 C30.88 38.99, 48.31 16.31, 59.95 7.06 M10.74 63.66 C21.47 51.76, 31.91 39.32, 59.95 7.06 M15.47 70.42 C30.09 53.53, 45.29 37.07, 67.95 10.04 M15.47 70.42 C32.4 50.2, 50.83 29.54, 67.95 10.04 M22.16 74.92 C35.07 64.42, 45.61 52.16, 73.33 16.05 M22.16 74.92 C31.68 63.18, 42.3 51.29, 73.33 16.05 M29.51 78.65 C43.13 65.05, 53.96 49.7, 78.06 22.81 M29.51 78.65 C40.7 65.65, 52.2 53.47, 78.06 22.81 M39.49 79.37 C48.56 67.36, 62.86 51.75, 83.44 28.81 M39.49 79.37 C48.47 68.61, 56.39 59.38, 83.44 28.81 M49.46 80.09 C62.01 67.6, 69.97 53.61, 84.89 39.34 M49.46 80.09 C62.53 65.88, 75.6 49.81, 84.89 39.34 M57.47 83.08 C63.44 75.89, 74.22 66.01, 85.68 50.63 M57.47 83.08 C68.32 71.38, 78.78 58.51, 85.68 50.63 M10.42 65.75 C10.42 65.75, 10.42 65.75, 10.42 65.75 M10.42 65.75 C10.42 65.75, 10.42 65.75, 10.42 65.75 M36.8 78.09 C27.34 68.62, 20.07 62.05, 0.57 46.59 M36.8 78.09 C24.9 67.07, 12.43 56.79, 0.57 46.59 M49.59 78.61 C38.77 68.65, 29.92 59.36, 2.05 37.28 M49.59 78.61 C38.03 70.06, 28.43 61.31, 2.05 37.28 M58.62 75.85 C44.78 60.68, 25.85 50.36, 3.52 27.96 M58.62 75.85 C37.2 57.57, 16.01 38.57, 3.52 27.96 M65.37 71.13 C47.23 55.37, 30.7 39.71, 6.51 19.95 M65.37 71.13 C43.61 53.08, 23.33 34.26, 6.51 19.95 M72.13 66.4 C60.51 55.26, 44.19 44.07, 11.75 13.91 M72.13 66.4 C48.06 45.46, 26.13 26.3, 11.75 13.91 M75.87 59.05 C61.47 49.29, 50.28 37.9, 17 7.88 M75.87 59.05 C55.46 42.14, 33.47 24.18, 17 7.88 M79.61 51.7 C67.54 41.8, 58.14 32.84, 24.52 3.81 M79.61 51.7 C65.28 38.91, 53.32 29.03, 24.52 3.81 M81.84 43.04 C63.18 30.49, 46.98 14.34, 34.29 1.71 M81.84 43.04 C69.51 31.61, 56.19 21.85, 34.29 1.71 M79.54 30.44 C66.5 18.99, 54.1 10.31, 45.58 0.92 M79.54 30.44 C71.09 22.01, 61.38 15.03, 45.58 0.92" stroke="#ffffff" stroke-width="1" fill="none"></path><path d="M40.96 0.27 C47.98 -0.2, 57.86 2.69, 64.01 6.64 C70.17 10.59, 74.94 17.28, 77.89 23.96 C80.85 30.64, 82.81 39.42, 81.73 46.72 C80.65 54.02, 76.2 62.32, 71.4 67.77 C66.61 73.22, 60.07 77.64, 52.96 79.41 C45.86 81.17, 35.82 80.62, 28.77 78.37 C21.71 76.13, 15.32 71.21, 10.63 65.93 C5.93 60.66, 1.67 53.99, 0.6 46.74 C-0.47 39.49, 1.21 29.15, 4.2 22.42 C7.18 15.68, 11.62 10, 18.52 6.34 C25.42 2.69, 40.46 1.16, 45.6 0.48 C50.73 -0.19, 49.48 1.56, 49.33 2.31 M56.38 3.82 C62.94 5.47, 68.82 10.35, 73.18 16.13 C77.54 21.91, 82.19 30.93, 82.54 38.5 C82.89 46.07, 79.03 55.11, 75.26 61.54 C71.49 67.98, 66.35 73.68, 59.91 77.12 C53.47 80.57, 44.16 82.87, 36.62 82.24 C29.09 81.6, 20.37 77.96, 14.72 73.31 C9.08 68.66, 4.94 61.27, 2.76 54.36 C0.58 47.44, -0.16 38.97, 1.65 31.81 C3.46 24.64, 8.67 16.6, 13.63 11.35 C18.59 6.11, 24.41 1.99, 31.43 0.33 C38.45 -1.33, 51.65 0.96, 55.74 1.39 C59.84 1.83, 56.23 2.12, 56.01 2.95" stroke="#1e1e1e" stroke-width="2" fill="none"></path></g><g stroke-linecap="round"><g transform="translate(109 271) rotate(0 19.5 22.5)"><path d="M0.34 -0.97 C6.64 6.37, 31.62 37.5, 38.12 45.22 M-0.94 1.13 C5.71 8.6, 33.75 35.6, 40.37 43.21" stroke="#1e1e1e" stroke-width="4" fill="none"></path></g></g><mask></mask><g stroke-linecap="round"><g transform="translate(178.80085552855644 72.58795024188191) rotate(0 15.82211339576827 -19.579865327263235)" fill-rule="evenodd"><path d="M2.45 0.52 C2.31 -5.96, -3.7 -35.14, 1.23 -38.12 C6.16 -41.09, 32.44 -24.01, 32.02 -17.34 C31.6 -10.67, 4.31 -0.79, -1.27 1.9" stroke="none" stroke-width="0" fill="#1e1e1e" fill-rule="evenodd"></path><path d="M-0.79 -0.36 C-0.6 -7.07, -3.12 -36.43, 2.29 -39.47 C7.7 -42.51, 32.24 -25.15, 31.67 -18.61 C31.1 -12.08, 4.08 -3.42, -1.13 -0.27 M0.99 -1.59 C0.99 -8.2, -3.28 -34.9, 1.71 -38.1 C6.7 -41.29, 31.45 -27.23, 30.92 -20.76 C30.39 -14.3, 3.82 -2.9, -1.48 0.69" stroke="#1e1e1e" stroke-width="1" fill="none"></path></g></g><mask></mask><g stroke-linecap="round"><g transform="translate(179.2857244992149 112.7199520065999) rotate(0 15.82211339576827 -19.579865327263235)" fill-rule="evenodd"><path d="M-0.36 1.04 C-0.44 -5.29, -3.16 -34.49, 1.96 -37.51 C7.08 -40.53, 30.95 -23.14, 30.37 -17.08 C29.79 -11.02, 3.35 -3.83, -1.5 -1.15" stroke="none" stroke-width="0" fill="#868e96" fill-rule="evenodd"></path><path d="M0.71 -0.31 C1.11 -6.72, -3.36 -35.63, 1.61 -38.79 C6.58 -41.94, 30.72 -25.76, 30.51 -19.26 C30.31 -12.75, 5.32 -3.02, 0.41 0.26 M-0.38 -1.52 C-0.07 -8.27, -4.86 -37.95, 0.67 -40.71 C6.21 -43.47, 32.78 -25.12, 32.82 -18.08 C32.85 -11.05, 6.33 -1.68, 0.87 1.49" stroke="#1e1e1e" stroke-width="1" fill="none"></path></g></g><mask></mask><g stroke-linecap="round"><g transform="translate(212.51216263032836 94.12896876657226) rotate(0 15.82211339576827 -19.579865327263235)" fill-rule="evenodd"><path d="M0.37 1.65 C0.48 -4.73, -4.65 -33.63, 0.31 -37.26 C5.27 -40.89, 29.98 -26.17, 30.14 -20.14 C30.3 -14.11, 6.4 -4.52, 1.27 -1.05" stroke="none" stroke-width="0" fill="#fd7e14" fill-rule="evenodd"></path><path d="M0.03 0.37 C-0.02 -6.15, -4.88 -36.25, 0.45 -39.43 C5.79 -42.61, 31.96 -25.36, 32.05 -18.73 C32.14 -12.1, 6.15 -2.8, 1 0.37 M-1.42 -0.48 C-1.17 -6.79, -2.91 -35.24, 2.57 -38.04 C8.06 -40.84, 31.63 -23.9, 31.5 -17.28 C31.37 -10.66, 6.97 -1.34, 1.78 1.67" stroke="#1e1e1e" stroke-width="1" fill="none"></path></g></g><mask></mask><g stroke-linecap="round" transform="translate(189.8150812420388 69.89203087463966) rotate(0 41 40.5)"><path d="M4.66 21.27 C4.66 21.27, 4.66 21.27, 4.66 21.27 M4.66 21.27 C4.66 21.27, 4.66 21.27, 4.66 21.27 M2.17 36.33 C11.01 26.48, 19.64 15.69, 31.03 3.13 M2.17 36.33 C11.49 25.18, 21.07 13.8, 31.03 3.13 M2.3 48.38 C16.48 32.95, 30.35 12.03, 43.63 0.83 M2.3 48.38 C13.35 37.35, 22.54 23.13, 43.63 0.83 M5.71 56.64 C14.03 43.62, 23.68 32.3, 51.64 3.81 M5.71 56.64 C22.95 35.46, 40.29 16.11, 51.64 3.81 M9.13 64.91 C28.35 42.78, 47.81 16.29, 60.3 6.04 M9.13 64.91 C27.87 43.29, 47.17 22.62, 60.3 6.04 M15.82 69.4 C37.57 46.74, 57.01 23.25, 66.99 10.54 M15.82 69.4 C27.58 55.14, 40.09 41.14, 66.99 10.54 M21.86 74.65 C33.84 59.53, 46.42 44.99, 71.72 17.29 M21.86 74.65 C33.28 60.55, 45.95 46.81, 71.72 17.29 M28.55 79.15 C42.58 63.41, 60.2 45.15, 76.44 24.05 M28.55 79.15 C47.65 57.7, 66.85 35.73, 76.44 24.05 M38.53 79.87 C46.92 70.5, 56.29 59.56, 79.2 33.07 M38.53 79.87 C50.32 65.07, 62.9 50.46, 79.2 33.07 M49.16 79.83 C56.26 72.38, 64.23 64.23, 80.65 43.61 M49.16 79.83 C59.03 66.87, 69.89 55.89, 80.65 43.61 M66.35 72.25 C70.43 68.63, 72.59 63.58, 75.53 61.68 M66.35 72.25 C70.33 68.28, 72.74 64.19, 75.53 61.68 M8.7 64.68 C8.7 64.68, 8.7 64.68, 8.7 64.68 M8.7 64.68 C8.7 64.68, 8.7 64.68, 8.7 64.68 M37.35 78.98 C30.62 70.46, 18.29 64.48, 1.88 48.14 M37.35 78.98 C26.3 69.91, 16.11 61.02, 1.88 48.14 M50.14 79.5 C37.97 69.58, 20.78 55.77, 1.84 37.51 M50.14 79.5 C31.95 64.36, 12.64 47.42, 1.84 37.51 M58.41 76.09 C40.55 60.97, 22.45 43.95, 4.07 28.85 M58.41 76.09 C42.55 62.69, 26.44 49.76, 4.07 28.85 M65.92 72.02 C46.96 56.04, 29.66 40.1, 6.3 20.19 M65.92 72.02 C43.07 54.17, 21.1 34.11, 6.3 20.19 M71.93 66.64 C54.62 52.95, 38.8 36.38, 11.55 14.15 M71.93 66.64 C48.15 45.36, 24.32 25.73, 11.55 14.15 M76.42 59.94 C56.03 40.85, 33.11 21.53, 17.55 8.77 M76.42 59.94 C55.92 42.21, 36.15 25.67, 17.55 8.77 M80.16 52.59 C61.88 37.06, 45.58 24.57, 24.31 4.04 M80.16 52.59 C64.11 38.96, 48.29 25.51, 24.31 4.04 M80.88 42.62 C69.85 33.97, 61.25 22.94, 34.09 1.94 M80.88 42.62 C67.19 29.87, 51.17 16.77, 34.09 1.94 M79.33 30.68 C71.2 23.79, 62.24 17.16, 43.11 -0.81 M79.33 30.68 C71.95 25.4, 64.14 17.69, 43.11 -0.81" stroke="#ffffff" stroke-width="1" fill="none"></path><path d="M42.75 0.16 C49.85 -0.03, 59.56 3.76, 65.46 8.14 C71.36 12.52, 75.45 19.57, 78.14 26.43 C80.84 33.28, 82.88 42.11, 81.64 49.27 C80.4 56.42, 75.8 64.36, 70.73 69.37 C65.66 74.37, 58.39 77.75, 51.23 79.32 C44.07 80.89, 34.87 81.21, 27.78 78.77 C20.68 76.32, 13.23 70.41, 8.68 64.66 C4.13 58.91, 1.11 51.55, 0.48 44.27 C-0.14 36.98, 1.52 27.47, 4.94 20.95 C8.36 14.43, 13.73 8.63, 21.03 5.17 C28.33 1.7, 42.91 0.5, 48.72 0.15 C54.53 -0.21, 55.91 2.43, 55.87 3.05 M37.64 -0.17 C44.73 -1.18, 53.92 2.66, 60.28 6.46 C66.65 10.26, 72.3 16.53, 75.83 22.63 C79.36 28.73, 81.89 36.21, 81.47 43.05 C81.05 49.88, 77.79 57.63, 73.29 63.64 C68.79 69.64, 61.17 76.31, 54.46 79.1 C47.75 81.89, 39.98 82, 33.06 80.37 C26.13 78.74, 18.09 74.69, 12.9 69.32 C7.71 63.96, 3.61 55.45, 1.92 48.2 C0.24 40.95, 0.36 32.54, 2.8 25.81 C5.24 19.08, 10.62 12.33, 16.56 7.83 C22.49 3.33, 34.77 0.05, 38.42 -1.17 C42.07 -2.4, 38.29 -0.37, 38.44 0.51" stroke="#1e1e1e" stroke-width="2" fill="none"></path></g><g stroke-linecap="round"><g transform="translate(257.8150812420388 142.89203087463966) rotate(0 19.5 22.5)"><path d="M0.13 0.15 C6.65 7.5, 33.02 36.94, 39.52 44.52 M-1.27 -0.82 C5.12 6.66, 32.23 38.4, 38.85 45.8" stroke="#1e1e1e" stroke-width="4" fill="none"></path></g></g><mask></mask><g stroke-linecap="round"><g transform="translate(431.873484506199 68.35233477960747) rotate(0 -16.184018433014444 -16.714641988195297)" fill-rule="evenodd"><path d="M2.34 -0.81 C3.85 -2.45, 6.22 -6.32, 7.33 -9.23 C8.43 -12.15, 9.96 -15.22, 8.96 -18.28 C7.96 -21.34, 5.34 -25.3, 1.32 -27.57 C-2.7 -29.85, -10.29 -31.67, -15.15 -31.93 C-20.02 -32.19, -23.64 -30.45, -27.89 -29.13 C-32.14 -27.81, -40.46 -24.21, -40.65 -24 C-40.85 -23.79, -32.9 -28.43, -29.07 -27.87 C-25.24 -27.31, -20.49 -23.19, -17.67 -20.64 C-14.84 -18.09, -13.37 -14.44, -12.13 -12.55 C-10.89 -10.66, -11.14 -9.6, -10.23 -9.29 C-9.33 -8.99, -8.54 -11.05, -6.69 -10.69 C-4.84 -10.34, 0.13 -8.56, 0.85 -7.17 C1.56 -5.78, -2 -3.65, -2.41 -2.33" stroke="none" stroke-width="0" fill="#fd7e14" fill-rule="evenodd"></path><path d="M-0.44 -0.64 C0.81 -1.77, 5.16 -3.7, 6.37 -6.86 C7.58 -10.03, 7.93 -15.68, 6.84 -19.63 C5.75 -23.58, 3.49 -28.12, -0.17 -30.57 C-3.84 -33.02, -10.42 -34.44, -15.13 -34.34 C-19.85 -34.25, -24.23 -31.78, -28.46 -29.99 C-32.69 -28.2, -40.5 -24.16, -40.51 -23.62 C-40.52 -23.09, -32.39 -27.1, -28.53 -26.8 C-24.66 -26.49, -19.86 -24.21, -17.33 -21.79 C-14.81 -19.38, -14.7 -13.98, -13.37 -12.3 C-12.04 -10.62, -10.69 -11.93, -9.34 -11.71 C-8 -11.48, -6.63 -11.98, -5.28 -10.95 C-3.93 -9.93, -2.04 -7.47, -1.24 -5.54 C-0.44 -3.61, -0.52 -0.32, -0.51 0.64 M1.54 1.63 C3.24 0.19, 7.23 -4.66, 8.52 -8.55 C9.82 -12.44, 10.76 -18.11, 9.29 -21.69 C7.82 -25.28, 3.48 -27.93, -0.3 -30.06 C-4.07 -32.18, -8.36 -34.36, -13.36 -34.43 C-18.37 -34.5, -25.87 -32.05, -30.33 -30.48 C-34.79 -28.9, -40.31 -25.49, -40.1 -24.98 C-39.89 -24.47, -33.14 -27.76, -29.07 -27.42 C-25 -27.07, -18.36 -25.37, -15.67 -22.92 C-12.98 -20.46, -14.02 -14.7, -12.95 -12.69 C-11.88 -10.68, -10.85 -11.6, -9.25 -10.87 C-7.64 -10.14, -4.71 -9.16, -3.3 -8.31 C-1.9 -7.47, -1.13 -7.31, -0.82 -5.79 C-0.52 -4.27, -1.38 -0.15, -1.48 0.79" stroke="#1e1e1e" stroke-width="1" fill="none"></path></g></g><mask></mask><g stroke-linecap="round"><g transform="translate(385.8355741471787 89.15088305856932) rotate(0 14.023622529778436 -23.625382099716717)" fill-rule="evenodd"><path d="M0.57 -0.13 C-0.17 -1.71, -4.08 -4.81, -5.36 -7.84 C-6.63 -10.87, -7.62 -15.68, -7.09 -18.31 C-6.57 -20.95, -2.41 -21.33, -2.24 -23.66 C-2.07 -25.98, -6.15 -30.17, -6.08 -32.28 C-6 -34.39, -3.6 -35, -1.77 -36.31 C0.05 -37.61, 4.03 -39.1, 4.87 -40.1 C5.71 -41.11, 1.54 -40.86, 3.27 -42.36 C5 -43.85, 11.9 -48.24, 15.23 -49.06 C18.56 -49.88, 20.79 -48.06, 23.24 -47.28 C25.68 -46.5, 28.27 -46.75, 29.88 -44.36 C31.49 -41.97, 33.68 -35.23, 32.88 -32.95 C32.09 -30.68, 27.44 -30.72, 25.1 -30.71 C22.75 -30.7, 20.19 -33.75, 18.8 -32.89 C17.4 -32.03, 17 -26.56, 16.74 -25.56 C16.47 -24.57, 17.97 -27.25, 17.2 -26.94 C16.42 -26.62, 14.1 -24.39, 12.09 -23.67 C10.08 -22.95, 7 -23.72, 5.15 -22.61 C3.31 -21.5, 2.08 -18.85, 1.02 -17.03 C-0.04 -15.22, -1.12 -13.77, -1.21 -11.72 C-1.31 -9.68, 0.52 -6.49, 0.43 -4.77 C0.35 -3.06, -1.91 -2.11, -1.74 -1.43" stroke="none" stroke-width="0" fill="#e03131" fill-rule="evenodd"></path><path d="M-1.06 0.83 C-1.8 -0.64, -4.09 -6.22, -4.9 -9.45 C-5.7 -12.68, -5.79 -16.13, -5.88 -18.56 C-5.98 -20.99, -5.97 -22.31, -5.48 -24.03 C-4.99 -25.76, -3.76 -26.72, -2.94 -28.89 C-2.12 -31.06, -1.64 -34.93, -0.57 -37.03 C0.49 -39.13, 2.51 -40.31, 3.45 -41.46 C4.39 -42.62, 3.14 -43.03, 5.07 -43.98 C6.99 -44.92, 12.06 -46.73, 14.99 -47.13 C17.93 -47.53, 20.23 -47.02, 22.7 -46.39 C25.17 -45.75, 28 -45.81, 29.81 -43.33 C31.63 -40.85, 34.7 -33.4, 33.58 -31.5 C32.46 -29.61, 25.49 -32.17, 23.12 -31.95 C20.74 -31.73, 20.22 -31.03, 19.32 -30.18 C18.42 -29.34, 18.17 -27.49, 17.71 -26.89 C17.25 -26.28, 17.62 -26.65, 16.56 -26.55 C15.49 -26.45, 13.05 -27.02, 11.32 -26.28 C9.59 -25.53, 7.71 -23.51, 6.18 -22.07 C4.65 -20.63, 3.38 -19.39, 2.16 -17.65 C0.93 -15.92, -0.64 -14.2, -1.16 -11.65 C-1.69 -9.1, -1.16 -4.26, -1.01 -2.35 C-0.86 -0.44, -0.49 -0.45, -0.29 -0.19 M0.58 0.22 C0.26 -1.55, -1.97 -8.28, -2.63 -11.29 C-3.29 -14.3, -2.86 -15.81, -3.36 -17.83 C-3.86 -19.85, -5.54 -21.11, -5.65 -23.41 C-5.77 -25.71, -5.08 -29.16, -4.03 -31.61 C-2.99 -34.05, -0.22 -36.77, 0.6 -38.08 C1.43 -39.38, -0.21 -38.43, 0.92 -39.43 C2.05 -40.43, 4.76 -42.56, 7.38 -44.06 C9.99 -45.57, 13.99 -47.97, 16.63 -48.45 C19.27 -48.94, 21.04 -47.9, 23.24 -46.98 C25.45 -46.06, 28.35 -45.55, 29.87 -42.95 C31.39 -40.34, 33.48 -33.1, 32.35 -31.35 C31.22 -29.6, 24.86 -32.62, 23.08 -32.44 C21.3 -32.25, 22.59 -31.09, 21.67 -30.23 C20.76 -29.38, 18.77 -28.09, 17.58 -27.3 C16.39 -26.51, 15.79 -25.74, 14.54 -25.51 C13.28 -25.28, 11.59 -26.64, 10.04 -25.92 C8.49 -25.21, 6.73 -22.72, 5.22 -21.22 C3.71 -19.72, 1.99 -18.28, 0.97 -16.91 C-0.04 -15.55, -0.43 -15.35, -0.89 -13.04 C-1.35 -10.73, -1.89 -4.94, -1.76 -3.04 C-1.64 -1.14, -0.49 -2.41, -0.16 -1.64" stroke="#1e1e1e" stroke-width="1" fill="none"></path></g></g><mask></mask><g stroke-linecap="round"><g transform="translate(426.2640354942878 104.81691183057399) rotate(0 -20.972264323812738 -20.151061202699566)" fill-rule="evenodd"><path d="M-0.95 1.65 C-2.16 2.19, -4.98 1.32, -6.89 1.64 C-8.8 1.95, -10.61 3.84, -12.43 3.53 C-14.26 3.22, -16.42 0.58, -17.83 -0.25 C-19.25 -1.07, -18.53 -0.21, -20.93 -1.42 C-23.33 -2.63, -29.44 -6.29, -32.23 -7.51 C-35.02 -8.74, -36.74 -7.63, -37.65 -8.76 C-38.56 -9.9, -36.59 -12.71, -37.71 -14.33 C-38.82 -15.95, -43.64 -15.91, -44.36 -18.48 C-45.07 -21.04, -43.22 -26.59, -42 -29.73 C-40.78 -32.87, -38.61 -35.11, -37.03 -37.3 C-35.45 -39.48, -34.08 -42.03, -32.53 -42.84 C-30.99 -43.66, -29.76 -42.62, -27.76 -42.18 C-25.76 -41.73, -21.3 -43.73, -20.51 -40.18 C-19.72 -36.64, -22.6 -25.56, -23.02 -20.89 C-23.45 -16.22, -23.99 -14.3, -23.06 -12.17 C-22.13 -10.04, -19.2 -10.05, -17.42 -8.11 C-15.65 -6.18, -13.97 -2.07, -12.42 -0.55 C-10.87 0.97, -9.79 0.5, -8.12 1.01 C-6.44 1.53, -3.4 2.44, -2.39 2.55" stroke="none" stroke-width="0" fill="#9c36b5" fill-rule="evenodd"></path><path d="M-0.85 0.53 C-2.04 0.5, -6.31 0.66, -8.16 0.65 C-10 0.64, -10.75 0.3, -11.92 0.48 C-13.09 0.65, -13.21 1.91, -15.2 1.68 C-17.18 1.46, -21.54 0.34, -23.82 -0.9 C-26.1 -2.13, -26.76 -4.36, -28.89 -5.71 C-31.03 -7.06, -34.65 -7.43, -36.63 -8.98 C-38.6 -10.54, -39.76 -13.06, -40.72 -15.04 C-41.68 -17.02, -42.14 -18.53, -42.37 -20.87 C-42.59 -23.2, -43 -26.7, -42.07 -29.06 C-41.14 -31.42, -38.37 -33.21, -36.79 -35.04 C-35.21 -36.87, -33.97 -38.95, -32.6 -40.04 C-31.23 -41.12, -30.19 -41.26, -28.56 -41.55 C-26.94 -41.84, -24.24 -45.58, -22.85 -41.8 C-21.45 -38.01, -20.47 -23.39, -20.21 -18.84 C-19.94 -14.3, -21.55 -16.6, -21.28 -14.53 C-21 -12.45, -20 -8.58, -18.58 -6.4 C-17.16 -4.23, -14.5 -2.78, -12.75 -1.48 C-11.01 -0.19, -10.07 0.79, -8.11 1.37 C-6.16 1.94, -2.04 2.04, -1.01 1.95 M0.9 -0.23 C0.2 -0.23, -4.09 1.34, -5.82 1.59 C-7.54 1.85, -7.99 1.63, -9.45 1.31 C-10.91 0.99, -12.5 -0.02, -14.57 -0.32 C-16.64 -0.62, -19.19 0, -21.87 -0.51 C-24.55 -1.02, -28.25 -1.78, -30.66 -3.37 C-33.06 -4.96, -35.01 -8.08, -36.31 -10.07 C-37.6 -12.06, -37.72 -13.27, -38.44 -15.32 C-39.16 -17.37, -40.08 -20.54, -40.6 -22.39 C-41.13 -24.25, -42.29 -23.99, -41.57 -26.45 C-40.85 -28.9, -38.11 -34.86, -36.29 -37.14 C-34.46 -39.42, -31.84 -39.27, -30.62 -40.12 C-29.39 -40.97, -30.65 -41.95, -28.93 -42.24 C-27.22 -42.52, -21.35 -45.61, -20.35 -41.84 C-19.35 -38.07, -22.95 -24.31, -22.94 -19.61 C-22.92 -14.92, -20.84 -15.47, -20.27 -13.67 C-19.7 -11.87, -20.58 -11, -19.51 -8.83 C-18.44 -6.66, -16.07 -2.44, -13.83 -0.63 C-11.59 1.18, -8.33 1.79, -6.05 2.01 C-3.78 2.22, -0.67 1.07, -0.19 0.66" stroke="#1e1e1e" stroke-width="1" fill="none"></path></g></g><mask></mask><g stroke-linecap="round"><g transform="translate(418.55736004999517 78.03305618811441) rotate(0 10.233454278486988 12.191707874987515)" fill-rule="evenodd"><path d="M-1.92 -0.88 C-2.07 -1.3, 0.12 -1.52, -2.24 -0.41 C-4.59 0.69, -13.97 3.06, -16.06 5.75 C-18.15 8.44, -16.19 13.09, -14.78 15.75 C-13.38 18.4, -8.75 19.82, -7.64 21.68 C-6.52 23.53, -9.24 26.35, -8.1 26.88 C-6.96 27.41, -3.09 24.89, -0.81 24.85 C1.46 24.81, 3.91 26.69, 5.55 26.63 C7.19 26.57, 7.3 25.01, 9.03 24.49 C10.77 23.98, 13.74 23.88, 15.95 23.52 C18.17 23.16, 20.96 23.94, 22.32 22.35 C23.67 20.76, 23.41 15.33, 24.1 13.98 C24.79 12.63, 25.05 15.3, 26.46 14.23 C27.88 13.16, 31.51 9.09, 32.61 7.55 C33.71 6.01, 32.88 6.77, 33.06 5.01 C33.25 3.24, 34.37 -3.25, 33.7 -3.03 C33.04 -2.81, 30.88 4.17, 29.07 6.34 C27.25 8.51, 24.81 9.5, 22.79 10.01 C20.78 10.51, 19.89 9.9, 16.99 9.38 C14.08 8.86, 7.42 7.63, 5.34 6.91 C3.25 6.18, 5.25 5.93, 4.49 5.01 C3.73 4.08, 1.84 2.25, 0.77 1.36" stroke="none" stroke-width="0" fill="#228be6" fill-rule="evenodd"></path><path d="M-0.7 -1.12 C-1.48 -1.34, -3.44 -2.5, -5.48 -0.79 C-7.51 0.92, -11.57 6.5, -12.92 9.14 C-14.27 11.77, -14.23 13.16, -13.59 15.02 C-12.94 16.89, -10.27 18.61, -9.06 20.32 C-7.84 22.02, -7.64 24.18, -6.3 25.25 C-4.97 26.33, -2.94 26.4, -1.05 26.78 C0.83 27.15, 3.34 27.73, 5.01 27.52 C6.68 27.31, 7.03 25.95, 8.97 25.52 C10.91 25.1, 14.76 25.71, 16.65 24.97 C18.55 24.24, 19.01 22.49, 20.34 21.11 C21.67 19.73, 23.44 18.06, 24.63 16.69 C25.81 15.32, 26.21 14.37, 27.44 12.91 C28.66 11.45, 31.16 9.69, 31.97 7.94 C32.78 6.19, 31.83 4.14, 32.29 2.4 C32.75 0.67, 35.08 -3.04, 34.73 -2.49 C34.38 -1.94, 32.19 3.62, 30.2 5.72 C28.22 7.82, 25.28 9.07, 22.84 10.08 C20.4 11.1, 18.22 12.12, 15.54 11.8 C12.86 11.48, 8.84 9.3, 6.78 8.15 C4.73 7, 4.43 6.12, 3.22 4.9 C2.01 3.67, 0.02 1.63, -0.47 0.81 M1.13 0.9 C0.81 0.76, -0.78 -0.8, -3.19 0.27 C-5.59 1.34, -11.58 4.71, -13.31 7.35 C-15.04 9.99, -14.12 13.94, -13.58 16.12 C-13.03 18.3, -11.44 19.04, -10.04 20.43 C-8.65 21.82, -6.76 23.63, -5.22 24.47 C-3.67 25.32, -2.26 25.07, -0.76 25.49 C0.74 25.92, 1.85 26.75, 3.76 27.04 C5.67 27.32, 8.38 27.53, 10.69 27.2 C13 26.88, 15.99 26.5, 17.6 25.09 C19.22 23.69, 18.95 20.22, 20.39 18.77 C21.84 17.33, 25.14 17.5, 26.27 16.41 C27.41 15.32, 26.28 13.71, 27.21 12.23 C28.14 10.75, 30.97 9.33, 31.87 7.54 C32.77 5.74, 32.5 3.44, 32.59 1.45 C32.69 -0.54, 33.01 -4.72, 32.43 -4.41 C31.86 -4.1, 30.39 0.75, 29.16 3.29 C27.92 5.83, 27.45 9.29, 25 10.84 C22.56 12.38, 17.47 12.7, 14.49 12.55 C11.51 12.4, 9.16 10.86, 7.12 9.93 C5.08 9, 3.49 8.63, 2.23 6.96 C0.97 5.28, -0.12 1.2, -0.43 -0.12" stroke="#1e1e1e" stroke-width="1" fill="none"></path></g></g><mask></mask><g stroke-linecap="round"><g transform="translate(418.68369899170466 77.9067172464047) rotate(0 17.11892660166643 -13.96045305892352)" fill-rule="evenodd"><path d="M-1.65 0.71 C-0.12 1.3, 5.57 1.21, 6.77 1.21 C7.96 1.21, 4.81 1.99, 5.55 0.73 C6.28 -0.53, 9.88 -4.44, 11.19 -6.36 C12.49 -8.27, 11.97 -8.88, 13.38 -10.77 C14.79 -12.66, 18.25 -15.67, 19.65 -17.7 C21.04 -19.74, 21.24 -21.27, 21.77 -22.97 C22.29 -24.68, 24.37 -24.84, 22.82 -27.93 C21.27 -31.01, 12.95 -40.78, 12.48 -41.48 C12.01 -42.18, 17.13 -34.54, 20.02 -32.13 C22.91 -29.73, 27.8 -29.49, 29.83 -27.06 C31.86 -24.64, 31.68 -19.89, 32.18 -17.61 C32.68 -15.33, 32.66 -15.23, 32.82 -13.39 C32.97 -11.55, 32.95 -8.28, 33.11 -6.55 C33.27 -4.81, 33.61 -3.81, 33.78 -3.01 C33.96 -2.2, 35.12 -2.93, 34.17 -1.74 C33.22 -0.55, 29.57 2.52, 28.08 4.13 C26.58 5.74, 26.79 6.57, 25.21 7.91 C23.63 9.26, 21 11.74, 18.58 12.22 C16.16 12.7, 12.4 11.3, 10.7 10.78 C9 10.26, 9.52 9.98, 8.39 9.1 C7.25 8.22, 5.03 6.37, 3.89 5.51 C2.75 4.64, 2.47 4.69, 1.54 3.91 C0.62 3.14, -1.73 1.11, -1.66 0.85" stroke="none" stroke-width="0" fill="#40c057" fill-rule="evenodd"></path><path d="M-0.8 -0.91 C0.17 -0.49, 3.76 1.51, 5.14 1.43 C6.53 1.35, 6.28 -0.32, 7.51 -1.4 C8.75 -2.49, 11.69 -3.79, 12.55 -5.08 C13.4 -6.36, 11.5 -7.39, 12.65 -9.11 C13.79 -10.83, 17.91 -13.12, 19.42 -15.42 C20.92 -17.72, 21.45 -20.3, 21.69 -22.89 C21.92 -25.48, 22.04 -28.44, 20.84 -30.95 C19.65 -33.46, 14.42 -37.59, 14.5 -37.95 C14.59 -38.3, 19.28 -35.08, 21.35 -33.09 C23.42 -31.1, 25.36 -28.33, 26.9 -26.01 C28.44 -23.69, 29.35 -21.16, 30.59 -19.18 C31.84 -17.21, 33.84 -15.89, 34.37 -14.17 C34.91 -12.45, 33.73 -10.75, 33.81 -8.84 C33.89 -6.94, 35.08 -4.33, 34.86 -2.74 C34.64 -1.16, 33.39 -0.84, 32.48 0.67 C31.57 2.17, 30.76 4.82, 29.41 6.29 C28.06 7.77, 26.37 8.8, 24.38 9.53 C22.4 10.26, 19.45 10.54, 17.52 10.68 C15.6 10.81, 14.58 10.54, 12.82 10.33 C11.06 10.12, 8.59 10.06, 6.99 9.4 C5.38 8.74, 4.37 7.31, 3.18 6.38 C2 5.45, 0.55 4.96, -0.14 3.83 C-0.83 2.69, -1.16 0.25, -0.94 -0.43 M0.98 1.22 C1.92 1.43, 3.65 0.08, 4.58 -0.14 C5.5 -0.36, 5.06 0.59, 6.51 -0.09 C7.96 -0.78, 11.94 -2.86, 13.28 -4.25 C14.61 -5.65, 13.31 -6.44, 14.51 -8.46 C15.71 -10.48, 19.21 -13.75, 20.48 -16.4 C21.74 -19.05, 22.26 -22.41, 22.11 -24.38 C21.95 -26.35, 21.07 -25.83, 19.55 -28.23 C18.04 -30.63, 12.63 -37.93, 13.02 -38.76 C13.4 -39.59, 19.58 -35.51, 21.85 -33.2 C24.12 -30.89, 24.86 -27.18, 26.62 -24.89 C28.38 -22.6, 31.57 -21.08, 32.39 -19.46 C33.21 -17.85, 31.43 -16.88, 31.54 -15.2 C31.66 -13.53, 32.42 -11.49, 33.08 -9.43 C33.74 -7.36, 35.41 -4.18, 35.51 -2.81 C35.62 -1.45, 34.37 -2.36, 33.72 -1.26 C33.07 -0.16, 33.32 1.83, 31.6 3.77 C29.89 5.71, 25.42 9.21, 23.43 10.39 C21.44 11.56, 21.31 10.6, 19.64 10.83 C17.97 11.07, 15.73 12.16, 13.4 11.8 C11.07 11.43, 7.29 9.77, 5.66 8.64 C4.02 7.5, 4.64 5.85, 3.62 4.99 C2.59 4.14, 0.07 4.6, -0.5 3.51 C-1.07 2.42, 0.15 -0.94, 0.2 -1.54" stroke="#1e1e1e" stroke-width="1" fill="none"></path></g></g><mask></mask><g stroke-linecap="round" transform="translate(406.8150812420388 65.89203087463966) rotate(0 41 40.5)"><path d="M19.12 6.02 C19.12 6.02, 19.12 6.02, 19.12 6.02 M19.12 6.02 C19.12 6.02, 19.12 6.02, 19.12 6.02 M10.07 28.63 C15.33 20.99, 21.89 17.18, 32.38 2.97 M10.07 28.63 C16.22 22.72, 21.94 16.6, 32.38 2.97 M3.65 48.22 C18.44 32.23, 30.12 17.09, 43.67 2.18 M3.65 48.22 C12.76 38.56, 19.74 30.59, 43.67 2.18 M7.06 56.49 C21.42 37.79, 39.05 21.29, 52.33 4.41 M7.06 56.49 C20.2 41.26, 33.17 26.43, 52.33 4.41 M9.16 66.26 C23.03 49.42, 40.99 30.41, 60.33 7.4 M9.16 66.26 C19.89 52.63, 32.55 39.82, 60.33 7.4 M15.85 70.76 C35.55 48.56, 55.96 23.95, 68.34 10.38 M15.85 70.76 C34.23 51.43, 51.03 30.27, 68.34 10.38 M22.55 75.25 C37.74 56.52, 51.59 39.21, 73.72 16.38 M22.55 75.25 C40.37 54.27, 58.24 33.46, 73.72 16.38 M29.24 79.74 C45.94 61.28, 58.65 46.48, 79.1 22.39 M29.24 79.74 C39.53 68.04, 51.03 54.45, 79.1 22.39 M39.87 79.71 C49.92 69.24, 56.85 58.86, 84.48 28.39 M39.87 79.71 C54.25 63.11, 68.25 48.12, 84.48 28.39 M49.85 80.43 C59.1 69.21, 72.31 57.33, 85.27 39.68 M49.85 80.43 C60.33 68.57, 71.07 56.49, 85.27 39.68 M56.54 84.92 C65.9 71.76, 78.32 59.74, 85.41 51.72 M56.54 84.92 C62.9 77.32, 70.44 69.05, 85.41 51.72 M9.13 65.71 C9.13 65.71, 9.13 65.71, 9.13 65.71 M9.13 65.71 C9.13 65.71, 9.13 65.71, 9.13 65.71 M37.02 79.35 C22.83 67.34, 12.67 57.78, 2.31 49.17 M37.02 79.35 C28.17 72.71, 20.26 64.96, 2.31 49.17 M49.82 79.87 C37.36 71.03, 27.48 60.69, 2.27 38.54 M49.82 79.87 C36.61 67.8, 22.54 56.57, 2.27 38.54 M58.09 76.46 C42.75 65.32, 29.11 52.37, 3.75 29.22 M58.09 76.46 C43.81 65.41, 30.69 53.49, 3.75 29.22 M64.84 71.73 C45.94 54.37, 28.09 37.54, 6.73 21.22 M64.84 71.73 C52.72 60.56, 38.49 48.67, 6.73 21.22 M71.6 67.01 C47.78 45.79, 26.94 26.06, 11.98 15.18 M71.6 67.01 C49.01 47.75, 26.13 27.11, 11.98 15.18 M75.34 59.66 C60.14 43.59, 41.15 28.53, 17.23 9.14 M75.34 59.66 C55.72 42.62, 37.07 26.77, 17.23 9.14 M78.33 51.65 C61.05 35.07, 40.47 18.47, 23.99 4.42 M78.33 51.65 C62.41 37.17, 45.27 21.31, 23.99 4.42 M80.56 42.99 C67.77 31.5, 55.95 21.68, 33.76 2.31 M80.56 42.99 C69.24 32.55, 57.85 21.5, 33.76 2.31 M79.77 31.7 C70.41 23.73, 59.3 11.89, 44.29 0.87 M79.77 31.7 C71.46 23.81, 61.84 16.67, 44.29 0.87 M69.17 11.89 C68.03 10.38, 65.46 9.73, 62.37 5.98 M69.17 11.89 C67.13 10.7, 66.19 9.31, 62.37 5.98" stroke="#ffffff" stroke-width="1" fill="none"></path><path d="M41.78 0.99 C48.89 0.47, 57.85 3.16, 64.12 7 C70.38 10.84, 76.62 17.33, 79.36 24.03 C82.1 30.74, 81.89 39.87, 80.57 47.24 C79.25 54.61, 76.25 62.74, 71.44 68.25 C66.62 73.77, 58.72 78.49, 51.68 80.33 C44.64 82.18, 36.28 81.76, 29.2 79.33 C22.12 76.9, 13.9 71.37, 9.18 65.75 C4.47 60.12, 1.61 52.55, 0.91 45.58 C0.21 38.61, 1.88 30.57, 4.96 23.93 C8.04 17.28, 12.61 9.59, 19.4 5.7 C26.2 1.82, 40.63 1.28, 45.72 0.63 C50.8 -0.03, 49.8 1.25, 49.92 1.78 M41.22 -0.95 C48.3 -1.45, 55.84 2.15, 61.99 5.99 C68.14 9.84, 74.8 15.58, 78.12 22.12 C81.43 28.67, 83.04 37.82, 81.88 45.27 C80.72 52.71, 75.78 61.24, 71.13 66.79 C66.48 72.34, 61.15 76.41, 53.98 78.57 C46.81 80.74, 35.41 81.58, 28.11 79.8 C20.8 78.02, 14.55 73.49, 10.15 67.89 C5.75 62.28, 2.79 53.42, 1.69 46.17 C0.6 38.92, 0.65 31.04, 3.59 24.39 C6.53 17.73, 12.98 10.17, 19.32 6.24 C25.65 2.32, 37.81 1.53, 41.61 0.83 C45.41 0.13, 42.46 1.55, 42.1 2.05" stroke="#1e1e1e" stroke-width="2" fill="none"></path></g><g stroke-linecap="round"><g transform="translate(474.8150812420388 138.89203087463966) rotate(0 19.5 22.5)"><path d="M0.05 -0.25 C6.8 7.19, 33.11 37.37, 39.8 44.96 M-1.39 -1.42 C5.33 6.18, 32.37 38.44, 39.27 46.48" stroke="#1e1e1e" stroke-width="4" fill="none"></path></g></g><mask></mask><g stroke-linecap="round"><g transform="translate(548.9278313842017 198.75798857826805) rotate(0 31.45775427634237 17.072114579723006)" fill-rule="evenodd"><path d="M1.19 -0.17 C1.79 -0.93, 1.07 -4.47, 2.3 -6.04 C3.52 -7.62, 6.54 -8.45, 8.52 -9.62 C10.5 -10.8, 12.78 -11.77, 14.16 -13.09 C15.55 -14.41, 10.94 -16.98, 16.83 -17.54 C22.72 -18.1, 42.58 -17.73, 49.49 -16.46 C56.4 -15.19, 56.1 -11.33, 58.29 -9.92 C60.48 -8.51, 61.7 -9.99, 62.61 -8.01 C63.52 -6.02, 63.91 -3.28, 63.74 1.99 C63.57 7.27, 62.1 19.27, 61.59 23.65 C61.07 28.04, 61.75 27.23, 60.64 28.31 C59.53 29.39, 57.2 29.39, 54.9 30.15 C52.6 30.91, 52.91 32.06, 46.85 32.87 C40.79 33.67, 22.4 33.34, 18.53 34.96 C14.66 36.58, 21.53 41.62, 23.64 42.59 C25.75 43.55, 28.24 41.2, 31.17 40.76 C34.1 40.32, 38.92 39.04, 41.22 39.95 C43.52 40.85, 46.36 44.45, 44.98 46.2 C43.61 47.96, 37.73 50.25, 32.99 50.48 C28.25 50.71, 20.81 48.84, 16.54 47.59 C12.27 46.34, 9.37 44.7, 7.36 42.97 C5.36 41.25, 5.46 40.42, 4.53 37.26 C3.59 34.09, 2.24 30.47, 1.75 23.98 C1.26 17.5, 2.08 2.44, 1.58 -1.67" stroke="none" stroke-width="0" fill="#7950f2" fill-rule="evenodd"></path><path d="M0.24 0.16 C0.36 -0.6, -0.08 -3.59, 0.82 -5.7 C1.71 -7.8, 3.81 -10.76, 5.62 -12.47 C7.44 -14.18, 9.75 -15.21, 11.69 -15.96 C13.62 -16.71, 11.03 -16.95, 17.21 -16.95 C23.4 -16.94, 42.29 -16.87, 48.78 -15.95 C55.26 -15.03, 54.26 -12.96, 56.13 -11.41 C58.01 -9.86, 58.87 -8.91, 60.03 -6.64 C61.18 -4.38, 62.78 -2.65, 63.06 2.16 C63.35 6.98, 62.37 17.97, 61.75 22.24 C61.14 26.52, 60.75 26.26, 59.39 27.8 C58.04 29.34, 55.54 30.34, 53.62 31.5 C51.7 32.67, 53.5 34.66, 47.9 34.79 C42.3 34.92, 24.02 30.97, 20.02 32.28 C16.03 33.59, 22.13 40.95, 23.95 42.65 C25.76 44.35, 27.79 42.42, 30.92 42.48 C34.06 42.53, 40.51 42.18, 42.76 42.97 C45 43.75, 46.22 45.99, 44.39 47.19 C42.57 48.39, 36.56 49.79, 31.8 50.15 C27.04 50.5, 19.95 50.5, 15.83 49.33 C11.71 48.17, 9.29 45.36, 7.08 43.16 C4.86 40.96, 3.67 39.01, 2.51 36.14 C1.36 33.26, 0.43 32.19, 0.15 25.91 C-0.14 19.62, 0.61 3, 0.8 -1.58 M-1.09 -0.81 C-0.61 -1.82, 1.51 -5.74, 3.05 -7.53 C4.58 -9.33, 6.72 -10.3, 8.1 -11.6 C9.48 -12.9, 9.52 -14.42, 11.33 -15.32 C13.15 -16.22, 12.54 -17.27, 18.98 -16.99 C25.41 -16.7, 43.65 -14.35, 49.95 -13.61 C56.25 -12.87, 54.75 -13.76, 56.77 -12.56 C58.78 -11.35, 61.27 -8.7, 62.05 -6.38 C62.84 -4.06, 61.46 -3.39, 61.47 1.37 C61.48 6.13, 62.44 17.58, 62.09 22.19 C61.75 26.79, 61.01 27.6, 59.41 29 C57.82 30.4, 54.91 29.75, 52.51 30.6 C50.12 31.45, 50.52 33.37, 45.04 34.12 C39.57 34.88, 23.1 33.71, 19.64 35.13 C16.18 36.55, 22.31 41.24, 24.29 42.64 C26.27 44.05, 28.11 43.88, 31.54 43.55 C34.97 43.22, 42.84 39.95, 44.86 40.68 C46.88 41.42, 45.56 46.34, 43.67 47.95 C41.77 49.56, 38.14 50.35, 33.48 50.34 C28.82 50.33, 19.76 48.73, 15.71 47.88 C11.66 47.04, 11.37 47.48, 9.18 45.27 C6.99 43.07, 4.11 38.03, 2.57 34.65 C1.03 31.27, 0.51 31.15, -0.07 24.99 C-0.65 18.83, -0.89 2.05, -0.9 -2.3" stroke="#1e1e1e" stroke-width="1" fill="none"></path></g></g><mask></mask><g stroke-linecap="round"><g transform="translate(560.1936937972162 222.32963916549977) rotate(0 20.79851522402805 -14.4723001767195)" fill-rule="evenodd"><path d="M0.56 0.2 C2.01 0.59, 8.51 5.16, 9.91 2.16 C11.31 -0.83, 8.79 -13.48, 8.96 -17.77 C9.14 -22.07, 9.67 -23.05, 10.94 -23.61 C12.21 -24.17, 15.17 -24.34, 16.56 -21.14 C17.95 -17.93, 17.83 -6.85, 19.29 -4.37 C20.76 -1.9, 24.41 -4.07, 25.34 -6.27 C26.28 -8.48, 24.85 -15.27, 24.91 -17.59 C24.98 -19.91, 24.46 -19.56, 25.71 -20.2 C26.96 -20.84, 30.64 -21.5, 32.39 -21.43 C34.13 -21.36, 35.97 -23.1, 36.18 -19.77 C36.4 -16.44, 32.92 -5.11, 33.68 -1.45 C34.44 2.21, 39.59 5.61, 40.72 2.2 C41.85 -1.2, 41.29 -16.33, 40.45 -21.89 C39.61 -27.45, 38.06 -29.58, 35.68 -31.17 C33.29 -32.77, 27.91 -31.97, 26.14 -31.46 C24.37 -30.96, 25.9 -29.74, 25.05 -28.15 C24.2 -26.57, 22.22 -21.97, 21.03 -21.97 C19.84 -21.97, 19.33 -26.76, 17.92 -28.15 C16.51 -29.55, 14.39 -30.3, 12.56 -30.34 C10.73 -30.39, 8.67 -29.05, 6.95 -28.43 C5.24 -27.81, 3.16 -28.05, 2.27 -26.63 C1.37 -25.2, 2.19 -24.51, 1.58 -19.87 C0.97 -15.23, -1.55 -2.14, -1.41 1.21" stroke="none" stroke-width="0" fill="#ffffff" fill-rule="evenodd"></path><path d="M-0.92 0.54 C0.21 0.4, 5.78 2.85, 7.01 -0.68 C8.24 -4.21, 5.77 -16.92, 6.49 -20.64 C7.2 -24.36, 9.76 -23.01, 11.32 -23.01 C12.88 -23.01, 14.87 -23.49, 15.84 -20.63 C16.81 -17.77, 15.98 -8.48, 17.14 -5.86 C18.29 -3.24, 21.58 -2.98, 22.76 -4.91 C23.95 -6.84, 23.72 -14.64, 24.24 -17.42 C24.76 -20.21, 24.73 -20.85, 25.88 -21.61 C27.03 -22.36, 29.64 -22.47, 31.14 -21.94 C32.65 -21.41, 34.3 -22.15, 34.9 -18.42 C35.5 -14.68, 33.51 -2.52, 34.72 0.47 C35.94 3.46, 41.2 3.24, 42.21 -0.48 C43.21 -4.2, 41.89 -17, 40.76 -21.83 C39.63 -26.65, 37.61 -28.35, 35.43 -29.45 C33.25 -30.56, 29.5 -28.82, 27.68 -28.44 C25.85 -28.06, 25.77 -28.19, 24.46 -27.16 C23.16 -26.14, 21.05 -22.43, 19.84 -22.3 C18.63 -22.17, 18.48 -25.1, 17.21 -26.41 C15.95 -27.72, 14.32 -29.63, 12.28 -30.15 C10.23 -30.68, 6.88 -30.46, 4.94 -29.55 C3.01 -28.64, 1.36 -26.33, 0.67 -24.7 C-0.02 -23.08, 0.72 -23.96, 0.8 -19.78 C0.87 -15.61, 1.35 -2.84, 1.11 0.34 M0.8 -0.22 C2.29 -0.24, 7.98 3.67, 9.31 0.4 C10.64 -2.86, 8.48 -15.99, 8.78 -19.78 C9.09 -23.58, 9.64 -22.22, 11.14 -22.34 C12.64 -22.46, 16.56 -23.12, 17.8 -20.52 C19.03 -17.91, 17.7 -9.18, 18.54 -6.7 C19.37 -4.23, 22.01 -3.9, 22.8 -5.65 C23.59 -7.39, 22.52 -14.35, 23.29 -17.17 C24.06 -20, 26.05 -21.76, 27.44 -22.59 C28.82 -23.43, 30.26 -22.96, 31.61 -22.18 C32.96 -21.4, 35.15 -21.64, 35.53 -17.91 C35.91 -14.18, 32.68 -3.07, 33.89 0.2 C35.1 3.48, 41.73 5.35, 42.76 1.74 C43.79 -1.87, 41.31 -16.14, 40.07 -21.47 C38.83 -26.79, 37.29 -28.73, 35.34 -30.19 C33.4 -31.65, 30.34 -30.31, 28.41 -30.22 C26.48 -30.14, 24.9 -31.06, 23.77 -29.69 C22.63 -28.31, 22.44 -22.64, 21.62 -21.99 C20.81 -21.35, 20.44 -24.72, 18.88 -25.82 C17.32 -26.93, 14.83 -27.79, 12.29 -28.63 C9.75 -29.48, 5.55 -31.3, 3.63 -30.87 C1.71 -30.45, 1.18 -27.84, 0.76 -26.11 C0.34 -24.37, 1.28 -24.77, 1.1 -20.48 C0.92 -16.19, -0.26 -3.64, -0.33 -0.37" stroke="#1e1e1e" stroke-width="1" fill="none"></path></g></g><mask></mask><g stroke-linecap="round" transform="translate(562.8150812420388 208.89203087463966) rotate(0 41 40.5)"><path d="M7.26 16.91 C7.26 16.91, 7.26 16.91, 7.26 16.91 M7.26 16.91 C7.26 16.91, 7.26 16.91, 7.26 16.91 M0.84 36.5 C8.5 28.93, 15.11 20.47, 30.36 2.54 M0.84 36.5 C13.2 22.12, 23.52 10, 30.36 2.54 M2.28 47.03 C16.18 27.97, 32.57 11.34, 41.65 1.75 M2.28 47.03 C17.49 30.51, 31.78 12.28, 41.65 1.75 M4.38 56.81 C22.43 37.43, 40.14 16.12, 51.62 2.47 M4.38 56.81 C22.1 36.82, 39.63 16.63, 51.62 2.47 M8.45 64.32 C20.07 50.82, 29.64 41.1, 58.97 6.21 M8.45 64.32 C29.24 41.44, 48.96 17.26, 58.97 6.21 M14.49 69.57 C26.56 54.76, 41.31 38.05, 66.32 9.95 M14.49 69.57 C33.65 45.73, 53.89 21.87, 66.32 9.95 M20.53 74.82 C38.71 52.26, 58.72 31.73, 71.7 15.95 M20.53 74.82 C32.38 61.98, 45.24 47.35, 71.7 15.95 M28.53 77.8 C43.81 61.02, 62.26 39.2, 76.43 22.71 M28.53 77.8 C44.31 60.36, 59.28 42.83, 76.43 22.71 M37.85 79.28 C47.09 66.85, 57.99 55.94, 80.5 30.22 M37.85 79.28 C54.51 60.35, 69.75 42.79, 80.5 30.22 M48.48 79.24 C57.55 70.23, 62.33 61.38, 81.28 41.51 M48.48 79.24 C60.97 64.83, 72.9 51.41, 81.28 41.51 M64.36 73.17 C68.74 69.26, 71.23 62.75, 80.11 55.06 M64.36 73.17 C69.02 68.12, 71.67 65.08, 80.11 55.06 M22.55 76.19 C22.55 76.19, 22.55 76.19, 22.55 76.19 M22.55 76.19 C22.55 76.19, 22.55 76.19, 22.55 76.19 M39.12 79.99 C30.41 74.46, 25.47 66.8, 3.65 49.15 M39.12 79.99 C26.81 68.31, 13.73 57.7, 3.65 49.15 M49.65 78.54 C31.32 62.07, 15.03 47.01, 1.35 36.56 M49.65 78.54 C34.75 65.44, 19.17 51.48, 1.35 36.56 M57.92 75.13 C40.95 61.91, 25.21 49.47, 3.58 27.89 M57.92 75.13 C36.25 58.31, 16.48 39.5, 3.58 27.89 M66.18 71.72 C51.39 62.48, 40.43 49.8, 6.56 19.89 M66.18 71.72 C43.89 52.93, 21.51 32.77, 6.56 19.89 M71.43 65.68 C46.78 46.81, 27.06 28.05, 11.06 13.19 M71.43 65.68 C57.53 53.07, 41.79 39.95, 11.06 13.19 M76.68 59.64 C53.57 40.02, 35.53 20.39, 17.81 8.47 M76.68 59.64 C53.79 41.04, 31.8 20.56, 17.81 8.47 M80.42 52.29 C64.13 38.8, 49.08 25.45, 24.57 3.74 M80.42 52.29 C61.55 36.73, 43.42 19.5, 24.57 3.74 M80.39 41.66 C69.58 30.12, 59.19 22.23, 34.35 1.64 M80.39 41.66 C64.37 28.07, 49.37 14.97, 34.35 1.64 M81.11 31.69 C67.15 21.79, 52.84 8.43, 45.63 0.85 M81.11 31.69 C67.91 19.04, 54.4 7.23, 45.63 0.85" stroke="#ffffff" stroke-width="1" fill="none"></path><path d="M26.78 2.58 C32.88 -0.47, 41.83 -0.91, 49.06 0.77 C56.29 2.45, 64.84 7.47, 70.16 12.66 C75.48 17.86, 79.33 24.93, 80.99 31.95 C82.64 38.96, 82.65 47.94, 80.1 54.75 C77.54 61.56, 71.65 68.46, 65.68 72.83 C59.71 77.19, 51.51 80.44, 44.27 80.95 C37.02 81.47, 28.86 79.33, 22.22 75.9 C15.57 72.46, 7.96 66.73, 4.38 60.33 C0.79 53.93, 0.19 44.77, 0.71 37.49 C1.24 30.2, 2.84 22.71, 7.52 16.61 C12.21 10.52, 24.72 3.35, 28.85 0.91 C32.98 -1.52, 31.99 1.11, 32.31 1.99 M45.42 0.84 C52.23 1.03, 59.75 4.89, 65.36 9.28 C70.97 13.68, 76.41 20.17, 79.09 27.22 C81.77 34.27, 83.22 44.44, 81.46 51.58 C79.71 58.72, 74.06 65.37, 68.56 70.05 C63.06 74.73, 55.43 78.32, 48.48 79.68 C41.53 81.04, 33.87 80.92, 26.88 78.19 C19.89 75.47, 11.22 69.21, 6.54 63.35 C1.87 57.49, -1 50.23, -1.19 43.02 C-1.38 35.81, 1.48 26.67, 5.39 20.09 C9.31 13.52, 15.69 7.14, 22.32 3.59 C28.96 0.03, 41.41 -0.99, 45.2 -1.25 C48.98 -1.51, 45.13 0.91, 45.04 2.04" stroke="#1e1e1e" stroke-width="2" fill="none"></path></g><g stroke-linecap="round"><g transform="translate(630.8150812420388 281.89203087463966) rotate(0 19.5 22.5)"><path d="M-0.85 1.09 C5.65 8.69, 32.96 37.83, 39.62 44.99 M0.91 0.61 C7.25 8.48, 32.75 39.14, 38.99 46.52" stroke="#1e1e1e" stroke-width="4" fill="none"></path></g></g><mask></mask></svg>