<?xml version="1.0" encoding="utf-8"?>
<!-- Generator: Adobe Illustrator 22.1.0, SVG Export Plug-In . SVG Version: 6.00 Build 0)  -->
<svg version="1.1" id="Calque_2" xmlns="http://www.w3.org/2000/svg" xmlns:xlink="http://www.w3.org/1999/xlink" x="0px" y="0px"
	 width="431.909px" height="99.84px" viewBox="0 0 431.909 99.84" style="enable-background:new 0 0 431.909 99.84;"
	 xml:space="preserve">
<style type="text/css">
	.st0{fill:#6F9AA8;}
	.st1{clip-path:url(#SVGID_2_);fill:url(#SVGID_3_);}
	.st2{fill:#FFFFFF;}
</style>
<g>
	<g>
		<path class="st0" d="M220.983,60.007l1.705-3.826c2.121,1.704,5.493,2.917,8.752,2.917c4.13,0,5.872-1.478,5.872-3.448
			c0-5.721-15.761-1.97-15.761-11.82c0-4.281,3.41-7.919,10.685-7.919c3.183,0,6.517,0.834,8.827,2.35l-1.553,3.826
			c-2.388-1.401-5.002-2.084-7.313-2.084c-4.092,0-5.759,1.592-5.759,3.6c0,5.646,15.723,1.97,15.723,11.707
			c0,4.243-3.447,7.881-10.722,7.881C227.31,63.189,223.18,61.901,220.983,60.007z"/>
		<path class="st0" d="M277.398,58.681v4.13h-19.891V36.289h19.36v4.13h-14.436v6.896h12.807v4.054h-12.807v7.313H277.398z"/>
		<path class="st0" d="M310.551,56.673h-13.261l-2.614,6.138h-5.077l11.935-26.521h4.85l11.973,26.521h-5.153L310.551,56.673z
			 M308.922,52.809l-5.001-11.594l-4.963,11.594H308.922z"/>
		<path class="st0" d="M349.539,62.811l-5.418-7.767c-0.341,0.037-0.682,0.037-1.023,0.037h-5.985v7.729h-4.926V36.289h10.911
			c6.972,0,11.291,3.562,11.291,9.435c0,4.016-2.046,6.971-5.646,8.373l6.1,8.714H349.539z M342.871,40.457h-5.759v10.57h5.759
			c4.318,0,6.554-1.97,6.554-5.304C349.424,42.389,347.189,40.457,342.871,40.457z"/>
		<path class="st0" d="M368.446,49.55c0-7.918,6.063-13.64,14.208-13.64c4.319,0,8.032,1.554,10.495,4.433l-3.183,2.993
			c-1.933-2.083-4.319-3.106-7.085-3.106c-5.494,0-9.473,3.864-9.473,9.32s3.979,9.32,9.473,9.32c2.766,0,5.152-1.022,7.085-3.145
			l3.183,3.031c-2.463,2.879-6.176,4.433-10.533,4.433C374.508,63.189,368.446,57.469,368.446,49.55z"/>
		<path class="st0" d="M431.909,36.289v26.521h-4.926V51.444h-13.715v11.366h-4.926V36.289h4.926v10.949h13.715V36.289H431.909z"/>
	</g>
	<g>
		<g>
			<defs>
				<path id="SVGID_1_" d="M11.075,0C4.983,0,0,4.984,0,11.075v77.69C0,94.856,4.983,99.84,11.075,99.84h165.389
					c6.091,0,11.075-4.984,11.075-11.076V70.466c0-2.028,0.806-3.973,2.24-5.406l9.116-9.116c2.543-2.544,2.537-6.671-0.014-9.208
					l-9.086-9.036c-1.443-1.435-2.255-3.385-2.255-5.421V11.075C187.539,4.984,182.555,0,176.464,0H11.075z"/>
			</defs>
			<clipPath id="SVGID_2_">
				<use xlink:href="#SVGID_1_"  style="overflow:visible;"/>
			</clipPath>
			
				<linearGradient id="SVGID_3_" gradientUnits="userSpaceOnUse" x1="-742.5804" y1="646.8466" x2="-741.5783" y2="646.8466" gradientTransform="matrix(-139.4551 135.5219 135.5219 139.4551 -191051.4531 10415.3066)">
				<stop  offset="0" style="stop-color:#E43300"/>
				<stop  offset="1" style="stop-color:#50002D"/>
			</linearGradient>
			<polygon class="st1" points="251.337,51.348 97.838,200.517 -49.899,48.492 103.599,-100.677 			"/>
		</g>
		<g>
			<path class="st2" d="M162.169,17.979L162.169,17.979c4.083,0,7.392,3.309,7.392,7.392v49.098c0,4.083-3.309,7.392-7.392,7.392
				c-4.083,0-7.392-3.309-7.392-7.392V25.371C154.777,21.288,158.086,17.979,162.169,17.979"/>
			<path class="st2" d="M138.238,48.916h-0.507c-0.065,0-0.128,0.008-0.192,0.01c-0.064-0.002-0.127-0.01-0.192-0.01h-7.299
				c-3.937,0-7.375,2.971-7.629,6.9c-0.279,4.305,3.131,7.885,7.377,7.885c0.777,0,1.347,0.755,1.112,1.496
				c-0.658,2.092-2.345,3.759-4.556,4.342c-2.078,0.548-4.285,0.823-6.619,0.823c-4.016,0-7.59-0.867-10.723-2.601
				c-3.135-1.735-5.582-4.153-7.346-7.256c-1.766-3.103-2.648-6.63-2.648-10.586c0-4.016,0.882-7.575,2.648-10.678
				c1.764-3.103,4.227-5.506,7.392-7.209c3.162-1.703,6.783-2.555,10.859-2.555c4.691,0,8.883,1.272,12.577,3.815
				c2.346,1.615,5.536,1.591,7.774-0.171c3.487-2.747,3.295-8.062-0.316-10.474c-1.704-1.138-3.546-2.117-5.524-2.934
				c-4.564-1.885-9.644-2.829-15.241-2.829c-6.693,0-12.717,1.415-18.07,4.243C95.761,23.956,91.58,27.88,88.567,32.9
				c-3.011,5.02-4.517,10.693-4.517,17.02s1.505,12,4.517,17.019c3.012,5.019,7.164,8.943,12.458,11.772
				c5.293,2.83,11.255,4.244,17.887,4.244c4.623,0,9.217-0.701,13.781-2.099c0.045-0.014,0.091-0.028,0.136-0.042
				c7.119-2.207,11.91-8.879,11.91-16.332v-9.066C144.738,51.826,141.828,48.916,138.238,48.916"/>
			<path class="st2" d="M76.568,25.279v49.282c0,4.033-3.269,7.301-7.301,7.301h-1.386c-2.185,0-4.255-0.979-5.642-2.668
				L37.958,49.625c-1.808-2.202-5.38-0.923-5.38,1.926v23.009c0,4.033-3.268,7.301-7.301,7.301c-4.032,0-7.301-3.268-7.301-7.301
				V25.279c0-4.033,3.269-7.301,7.301-7.301h1.471c2.189,0,4.262,0.982,5.648,2.676l24.187,29.538
				c1.806,2.206,5.382,0.928,5.382-1.923v-22.99c0-4.033,3.269-7.301,7.301-7.301h0.001C73.299,17.978,76.568,21.246,76.568,25.279"
				/>
		</g>
	</g>
</g>
</svg>
